<?xml version="1.0" encoding="UTF-8"?>
<svg id="SVGDoc" width="24" height="22" xmlns="http://www.w3.org/2000/svg" version="1.1" xmlns:xlink="http://www.w3.org/1999/xlink" xmlns:avocode="https://avocode.com/" viewBox="0 0 24 22"><defs></defs><desc>Generated with Avocode.</desc><g><g><title>Group 8</title><g><title>Group 2</title><g><title>Rectangle</title></g><g><title>supermarket</title><g><title>Shape</title><path d="M19.5,20.5c-0.5515,0 -1,-0.4485 -1,-1c0,-0.5515 0.4485,-1 1,-1c0.5515,0 1,0.4485 1,1c0,0.5515 -0.4485,1 -1,1zM19.5,17c-1.37852,0 -2.5,1.12151 -2.5,2.5c0,1.37849 1.12151,2.5 2.5,2.5c1.37849,0 2.5,-1.12151 2.5,-2.5c0,-1.37849 -1.12151,-2.5 -2.5,-2.5z" fill="#101926" fill-opacity="1"></path></g><g><title>Shape</title><path d="M20.22439,14.03483h-12.57203l-1.68167,-7.64774h15.99461zM23.80922,4.80692c-0.16997,-0.2369 -0.43064,-0.37508 -0.70683,-0.37508h-17.56079l-0.80799,-3.68137c-0.09666,-0.43991 -0.45788,-0.75047 -0.87324,-0.75047h-2.96261c-0.49585,-0.00005 -0.89776,0.43761 -0.89776,0.97757c0,0.53995 0.40191,0.97761 0.89776,0.97761h2.25399l2.91771,13.29435c0.09666,0.44027 0.45788,0.75047 0.87324,0.75047h13.97516c0.41269,0 0.77237,-0.30632 0.87141,-0.74235l2.18458,-9.61328c0.06609,-0.29193 0.00534,-0.60055 -0.16463,-0.83745z" fill="#101926" fill-opacity="1"></path></g><g><title>Shape</title><path d="M7.5,20.5c-0.5515,0 -1,-0.4485 -1,-1c0,-0.5515 0.4485,-1 1,-1c0.5515,0 1,0.4485 1,1c0,0.5515 -0.4485,1 -1,1zM7.5,17c-1.37852,0 -2.5,1.12151 -2.5,2.5c0,1.37849 1.12151,2.5 2.5,2.5c1.37849,0 2.5,-1.12151 2.5,-2.5c0,-1.37849 -1.12151,-2.5 -2.5,-2.5z" fill="#101926" fill-opacity="1"></path></g></g></g></g></g></svg>